Patient4_TMGait_0pt2_03_left_14_EMG.mot
version=1
nRows=19
nColumns=33
inDegrees=no
endheader
time	1LAddLong	2LGlutMax	3LGlutMed	4LIliopsoas	5LSemiMemb	6LBicFemLong	7LRecFem	8LVastMed	9LVastLat	10LGasMed	11LTibAnt	12lTibPost	13LPeroneusLong	14LSol	15LExtDigLong	16LFlexDigLong	17RAddLong	18RGlutMax	19RGlutMed	20RIliopsoas	21RSemiMemb	22RBicFemLong	23RRecFem	24RVastMed	25RVastLat	26RGasMed	27RTibAnt	28RTibPost	29RPeroneusLong	30RSol	31RExtDigLong	32RFlexDigLong
29.607	0.0177	0.010986	-0.088959	0.009003	-0.020447	-0.014954	0.031128	-0.011444	0.000916	-0.034637	-0.009918	0.00061	-0.042725	0.06012	0.007172	0.70892	-0.000153	-0.059967	-0.067902	0.006256	-0.030212	0.10162	-0.046234	-0.072937	0.041199	-0.034332	0.011444	-0.00351	-0.030975	-0.085297	0.000305	-0.011597
29.608	0.001526	0.018158	-0.081024	0.001678	0.01358	-0.000305	0.088043	-0.007477	-0.012817	-0.013428	0.045471	0.002594	-0.067291	0.16617	-0.023346	0.031586	-0.014648	0.011444	-0.050964	0.020599	0.062714	0.067444	-0.048065	-0.046844	0.030823	-0.026855	-0.017548	-0.002136	-0.029449	-0.088806	-0.004272	-0.007782
29.609	-0.00473	-0.02243	-0.14023	-0.014954	0.020752	-0.001984	0.025787	0.004883	-0.01358	-0.001831	0.070038	0.000458	-0.0383	0.22751	-0.03418	0.035858	-0.005035	-0.067902	-0.071564	-0.023956	0.16586	0.022736	-0.057678	-0.051117	0.039215	-0.022888	0.003204	-0.00473	-0.091553	-0.10346	0.000458	-0.012207
29.61	-0.012512	-0.070038	-0.051117	0.000305	-0.003662	0.033569	-0.00946	0.015564	0.019379	-0.000305	0.067596	0.002136	-0.036011	0.14191	-0.04776	0.10162	-0.010681	-0.033875	-0.055389	-0.053558	0.13199	0.074768	-0.059052	-0.075226	0.029144	-0.011444	0.010223	0.000153	-0.044098	-0.112	0	-0.011749
29.611	-0.010681	-0.064392	0.075684	0.00473	-0.03952	0.061188	-0.051422	0.018616	0.12009	-0.010986	0.023346	0.002594	0.030823	0.073853	-0.033875	0.17883	0.004272	0.001068	-0.028687	-0.018311	-0.20081	0.087585	-0.052338	-0.040894	0.01709	-0.006256	0.021667	-0.009003	-0.090485	-0.082092	-0.001831	-0.013275
29.612	0.014191	-0.090332	0.044403	-0.002289	-0.023651	0.07019	-0.052338	0.029297	0.25436	-0.0383	-0.091095	0.000305	0.078583	0.062866	0.025635	-0.044708	0.029144	0.011444	-0.066071	0.009918	-0.31784	0.099487	-0.043182	-0.079498	0.016785	-0.009003	0.028687	-0.007324	-0.007324	-0.041199	-0.000458	-0.007172
29.613	0.017395	-0.061188	0.062256	0.01297	0.048218	-0.048065	-0.010376	0.021973	0.25269	-0.03418	-0.081024	0	0.054169	0.01358	0.077362	-0.1564	0.010986	0.014496	-0.063019	-0.007172	0.11078	0.083618	-0.039215	-0.091705	-0.003967	-0.004883	0.014343	-0.005646	-0.075073	-0.022583	-0.001984	-0.012665
29.614	0.017395	-0.053253	0.041809	0.023804	0.035706	-0.13062	-0.045929	0.010376	0.14862	-0.022888	-0.055695	0.002594	-0.018158	0.000763	0.080872	0.06485	-0.003052	-0.006409	-0.07309	-0.016937	0.33112	-0.010681	-0.033875	-0.067596	0.013275	-0.003357	0.028992	-0.007782	-0.10254	-0.013885	-0.000458	-0.016785
29.615	0.01709	-0.018005	0.019989	0.00351	0.006104	-0.11414	-0.020142	0.00473	-0.093689	0.000305	-0.10712	0.002747	-0.027313	0.021057	0.081329	0.032043	-0.005646	0.050812	-0.08194	0.057373	0.089722	-0.012665	-0.013885	0.001068	0.015869	-0.014343	0.001526	-0.003967	-0.002289	-0.048828	0.002747	-0.019379
29.616	0.014343	-0.065155	0.015259	0.001984	-0.015259	-0.02655	0.023041	-0.003662	-0.23483	0.019226	-0.049438	-0.003967	-0.04837	0.020142	0.065308	-0.021973	0.005035	0.019989	-0.042114	0.1091	0.072327	-0.081787	-0.036621	0.029449	0.007935	-0.010071	0.047913	-0.004425	-0.012665	-0.038605	0.000916	-0.024414
29.617	0.021515	-0.049591	-0.024719	0.020905	0.003815	-0.054932	0.10422	-0.004883	-0.22919	0.015869	0.033722	0.005341	-0.032196	0.038147	-0.015564	-0.024414	0.001831	0.05127	-0.11032	0.1033	0.16357	-0.041504	-0.066833	0.012665	0.029755	-0.006409	0.053253	-0.005493	0.039673	-0.054169	0.000305	-0.029144
29.618	0.019073	-0.033569	-0.030518	0.018768	0.027161	-0.10941	0.16769	-0.010681	-0.17014	0.019989	0.12024	0.005035	-0.019226	0.035858	0.021057	-0.032349	-0.013428	0.005646	-0.037689	0.030212	-0.052338	0.06134	-0.006256	0.008087	0.037537	-0.009766	-0.0177	-0.001526	0.018616	-0.036163	-0.004272	-0.022278
29.619	0.026093	-0.057526	0.095215	0.015411	0.061951	-0.072479	0.14343	0.006256	-0.053101	-0.001221	0.1506	0.005951	0.017395	0.033264	-0.012817	-0.022125	-0.007477	0.011597	-0.002136	-0.013123	-0.033722	0.033112	-0.046082	0.003052	0.027161	-0.009918	-0.009766	-0.005646	0.20142	-0.049744	0.001984	-0.029297
29.62	0.022888	-0.075226	0.10437	0.001831	0.045929	-0.03067	0.11902	-0.006256	0.089264	-0.007935	0.12024	0.00412	-0.025482	0.054169	0.19012	-0.025482	-0.001831	0.028687	0.013428	0.017548	0.050049	-0.03479	-0.085297	-0.021515	0.021515	-0.006866	0.039978	-0.002289	0.32806	-0.089417	0.000305	-0.023651
29.621	0.003662	0.000153	0.037842	-0.007782	0.016632	0.01236	0.11673	-0.010681	0.11978	-0.009766	-0.023651	0.003815	-0.001831	0.054932	0.1413	-0.019684	0.014648	-0.010071	-0.031891	0.006866	0.10223	-0.072021	-0.067444	-0.032806	0.020294	-0.004883	0.065613	-0.003204	0.079041	-0.098724	-0.001526	-0.027313
29.622	-0.004883	0.002899	-0.045013	-0.003357	-0.007324	0.047913	0.13809	-0.004272	0.073547	-0.006104	-0.16663	-0.001678	-0.00351	0.061798	-0.11246	-0.013123	0.023499	-0.04303	-0.084839	0.002747	0.18387	-0.091095	-0.058594	-0.059814	0.012665	-0.001068	0.096893	-0.000916	-0.34225	-0.083771	0.002594	-0.019836
29.623	-0.009155	0.016174	-0.10757	0.002136	-0.020447	0.005493	0.099182	-0.003052	0.067596	-0.020447	-0.15243	-0.014801	0.002441	0.052032	-0.34088	-0.02182	0.038757	-0.020599	-0.036926	-0.089722	0.045929	-0.053711	-0.077515	-0.11505	0.010529	-0.004883	0.077972	-0.001831	-0.34042	-0.081024	0	-0.009766
29.624	-0.007019	0.10803	-0.12573	-0.006561	-0.034332	-0.023804	0.067596	0.007324	0.075684	-0.010834	-0.0914	-0.014191	0.05249	0.003967	-0.29724	-0.012207	0.019836	0.008698	0.039673	-0.12909	-0.28244	0.016174	-0.090179	-0.11612	0.006561	-0.002441	0.024261	-0.00412	0.79468	-0.14465	-0.005646	-0.021667
29.625	-0.000305	0.12848	0.00473	-0.009613	-0.044861	-0.015564	0.039368	0.026093	0.081024	-0.011292	-0.028687	0.00351	0.000153	-0.009155	-0.000458	-0.007324	0.00412	-0.024414	0.028687	-0.2005	-0.24063	-0.046692	-0.055695	-0.058746	0.023499	0.000153	-0.002594	0.001373	-0.50201	-0.12177	-0.000305	-0.016937
